# xmcd
#
# Track frame offsets: 
#        150
#        21603
#        39595
#        63650
#        89055
#        129917
#        166868
#        184940
#        200090
#        225385
#        240058
#        257045
#        285183
#
# Disc length: 4196 seconds
#
# Revision: 0
# Processed by: cddbd v1.5.2PL0 Copyright (c) Steve Scherf et al.
# Submitted via: ExactAudioCopy v1.1
#
DISCID=ae10620d
DTITLE=Gram Parsons and The Fallen Angels - Live 1973
DYEAR=1996
DGENRE=Country
TTITLE0=We'll Sweep Out The Ashes
TTITLE1=Country Baptizing
TTITLE2=Drug Store Truck Drivin' Man
TTITLE3=Big Mouth Blues
TTITLE4=The New Soft Shoe
TTITLE5=Cry One More Time
TTITLE6=Streets Of Baltimore
TTITLE7=That's All It Took
TTITLE8=Love Hurts
TTITLE9=California Cottonfields
TTITLE10=Six Days On The Road
TTITLE11=Encore Medley: Bony Maronie - Forty Days - Almost Grown
TTITLE12=$1000 Wedding (1971 Studio Recording)
EXTD=
EXTT0=
EXTT1=
EXTT2=
EXTT3=
EXTT4=
EXTT5=
EXTT6=
EXTT7=
EXTT8=
EXTT9=
EXTT10=
EXTT11=
EXTT12=
PLAYORDER=
